<?xml version="1.0" encoding="iso-8859-1"?>
<!-- Generator: Adobe Illustrator 18.1.1, SVG Export Plug-In . SVG Version: 6.00 Build 0)  -->
<svg version="1.1" id="Capa_1" xmlns="http://www.w3.org/2000/svg" xmlns:xlink="http://www.w3.org/1999/xlink" x="0px" y="0px"
	 viewBox="0 0 503.972 503.972" style="enable-background:new 0 0 503.972 503.972;" xml:space="preserve">
<g>
	<g>
		<path style="fill:#010002;" d="M214.741,310.967c-16.859,2.146-29.816,9.356-39.537,21.972
			c-28.434,36.904-17.265,106.379-17.151,107.078l4.137,24.849c22.809,24.044,54.982,39.107,90.731,39.107
			c44.658,0,83.749-23.459,105.907-58.648l-1.122-13.152l-6.129-71.621C275.616,352.04,226.145,319.217,214.741,310.967z
			 M191.517,388.839c0-9.112,7.389-16.501,16.501-16.501s16.501,7.389,16.501,16.501s-7.389,16.501-16.501,16.501
			C198.906,405.34,191.517,397.951,191.517,388.839z M295.108,445.95c-26.393,16.639-58.062,16.753-83.732-1.268
			c-9.153-6.422,2.374-19.362,11.396-13.03c19.102,13.404,43.39,12.079,62.671-0.073C294.888,425.637,304.545,440,295.108,445.95z
			 M295.051,405.34c-9.112,0-16.501-7.389-16.501-16.501s7.389-16.501,16.501-16.501s16.501,7.389,16.501,16.501
			C311.56,397.951,304.171,405.34,295.051,405.34z"/>
		<path style="fill:#010002;" d="M57.737,89.187c0,19.752,25.19,36.432,59.493,41.651l21.663,97.884v51.08
			c-4.625,6.625-10.185,16.062-14.558,28.157c-5.007,13.827-8.397,31.035-6.991,51.161c0.87,12.404,3.593,25.922,8.893,40.44
			c4.845,13.274,11.778,27.345,21.549,42.204c0,0-22.394-138.812,67.947-147.542c0,0,55.486,45.341,145.827,54.071l6.844,83.115
			c0,0,3.991-6.877,8.283-18.826c5.332-14.875,11.096-37.643,10.177-64.955c-0.455-13.697-2.626-28.531-7.356-44.081
			c-3.121-10.283-7.438-20.882-13.063-31.669v-43.155l21.703-98.079c33.595-5.446,58.087-21.972,58.087-41.456
			c0-19.606-24.443-36.294-58.843-41.602C366.249,19.167,312.844,0,251.986,0S137.731,19.167,116.588,47.585
			C82.18,52.893,57.737,69.589,57.737,89.187z M336.36,239.679h7.039v0.382v3.186v32.514v0.837H160.58v-28.385v-8.535h22.492
			C183.072,239.679,336.36,239.679,336.36,239.679z M133.374,60.379c12.737-26.369,60.948-46.008,118.62-46.008
			s105.883,19.639,118.62,46.008c29.572,1.601,52.584,13.884,52.584,28.808c0,15.03-23.321,27.385-53.193,28.848l-25.125,102.989
			H160.458L136.885,118.1c-31.246-0.78-56.103-13.412-56.103-28.921C80.782,74.263,103.794,61.98,133.374,60.379z"/>
		<path style="fill:#010002;" d="M190.339,187.177l0.13,0.626c0.488,2.414,3.723,4.17,7.438,4.17c0.325,0,0.65-0.016,0.984-0.041
			c3.78-0.317,6.397-2.382,6.405-4.747c0-0.211,0.114-0.406,0.065-0.618l-9.315-45.374l-3.373-16.444l-0.699-3.422l-0.13-0.618
			c-0.536-2.626-4.3-4.487-8.421-4.129c-2.723,0.228-4.796,1.39-5.812,2.886c-0.398,0.585-0.593,1.203-0.593,1.861
			c0,0.211-0.114,0.406-0.065,0.626l3.056,14.883L190.339,187.177z"/>
		<path style="fill:#010002;" d="M317.396,191.932c0.333,0.024,0.658,0.041,0.984,0.041c3.723,0,6.95-1.756,7.438-4.17l0.13-0.626
			l10.396-50.633l2.999-14.607c0.041-0.219-0.065-0.415-0.065-0.626c0-0.756-0.276-1.447-0.78-2.097
			c-1.081-1.374-3.056-2.439-5.625-2.65c-4.154-0.366-7.885,1.504-8.421,4.129l-0.13,0.618l-0.65,3.162l-3.398,16.525l-9.356,45.544
			c-0.041,0.211,0.065,0.415,0.065,0.618C310.999,189.542,313.617,191.615,317.396,191.932z"/>
		<path style="fill:#010002;" d="M251.539,187.177c1.162,0.471,2.455,0.813,3.934,0.813s2.772-0.341,3.934-0.813
			c2.105-0.845,3.577-2.276,3.577-3.983v-35.92v-14.396v-11.559v-8.966c0-2.65-3.357-4.788-7.511-4.788s-7.511,2.146-7.511,4.788
			v8.966v11.591v14.396v35.896C247.962,184.909,249.442,186.331,251.539,187.177z"/>
	</g>
</g>
<g>
</g>
<g>
</g>
<g>
</g>
<g>
</g>
<g>
</g>
<g>
</g>
<g>
</g>
<g>
</g>
<g>
</g>
<g>
</g>
<g>
</g>
<g>
</g>
<g>
</g>
<g>
</g>
<g>
</g>
</svg>
