<?xml version="1.0" encoding="iso-8859-1"?>
<!-- Generator: Adobe Illustrator 16.0.0, SVG Export Plug-In . SVG Version: 6.00 Build 0)  -->
<!DOCTYPE svg PUBLIC "-//W3C//DTD SVG 1.1//EN" "http://www.w3.org/Graphics/SVG/1.1/DTD/svg11.dtd">
<svg version="1.1" id="Capa_1" xmlns="http://www.w3.org/2000/svg" xmlns:xlink="http://www.w3.org/1999/xlink" x="0px" y="0px"
	 width="476.91px" height="476.909px" viewBox="0 0 476.91 476.909" style="enable-background:new 0 0 476.91 476.909;"
	 xml:space="preserve">
<g>
	<g>
		<path d="M62.802,142.287h121.682c4.45,0,10.95-3.805,13.32-7.999l24.816-41.066H62.802C28.12,93.222,0,121.342,0,156.026v20.779
			C13.266,156.086,36.425,142.287,62.802,142.287z"/>
		<path d="M414.105,67.708H266.913c-8.681,0-19.151,6.125-23.399,13.685l-7.147,11.828l-28.489,47.157
			c-4.246,7.558-14.719,13.684-23.393,13.684H62.802C28.12,154.062,0,182.183,0,216.865v115.794v13.737
			c0,34.685,28.12,62.805,62.802,62.805h351.303c34.685,0,62.805-28.12,62.805-62.805v-13.737V156.026v-25.515
			C476.91,95.829,448.79,67.708,414.105,67.708z M241.165,180.88c62.592,0,113.498,50.909,113.498,113.492
			c0,6.147-4.732,11.141-10.747,11.67v54.766c0,8.957-7.262,16.222-16.223,16.222H303.36c-8.965,0-16.23-7.249-16.23-16.222v-81.354
			c0-8.953,7.258-16.223,16.23-16.223h22.077c-12.712-34.267-45.629-58.801-84.272-58.801c-38.642,0-71.564,24.534-84.276,58.801
			h19.375c8.959,0,16.227,7.262,16.227,16.223v81.354c0,8.957-7.26,16.222-16.227,16.222h-24.337
			c-8.957,0-16.226-7.249-16.226-16.222v-55.318c-4.657-1.571-8.037-5.928-8.037-11.108
			C127.665,231.789,178.573,180.88,241.165,180.88z"/>
	</g>
</g>
<g>
</g>
<g>
</g>
<g>
</g>
<g>
</g>
<g>
</g>
<g>
</g>
<g>
</g>
<g>
</g>
<g>
</g>
<g>
</g>
<g>
</g>
<g>
</g>
<g>
</g>
<g>
</g>
<g>
</g>
</svg>
