<?xml version="1.0" encoding="iso-8859-1"?>
<!-- Generator: Adobe Illustrator 16.0.0, SVG Export Plug-In . SVG Version: 6.00 Build 0)  -->
<!DOCTYPE svg PUBLIC "-//W3C//DTD SVG 1.1//EN" "http://www.w3.org/Graphics/SVG/1.1/DTD/svg11.dtd">
<svg version="1.1" id="Capa_1" xmlns="http://www.w3.org/2000/svg" xmlns:xlink="http://www.w3.org/1999/xlink" x="0px" y="0px"
	 width="256.8px" height="256.8px" viewBox="0 0 256.8 256.8" style="enable-background:new 0 0 256.8 256.8;" xml:space="preserve"
	>
<g>
	<path d="M233.787,42.137c-0.108-0.451-0.233-0.896-0.419-1.321c-0.094-0.217-0.229-0.414-0.342-0.621
		c-0.141-0.264-0.27-0.541-0.436-0.784c-0.16-0.233-0.357-0.44-0.538-0.653c-0.166-0.189-0.311-0.396-0.492-0.572
		c-0.191-0.187-0.409-0.34-0.616-0.51c-0.207-0.164-0.404-0.35-0.632-0.502c-0.207-0.132-0.435-0.233-0.642-0.344
		c-0.26-0.145-0.503-0.298-0.771-0.404c-0.265-0.111-0.544-0.176-0.813-0.254c-0.243-0.075-0.472-0.166-0.725-0.212
		c-0.425-0.091-0.86-0.111-1.29-0.132c-0.119-0.005-0.223-0.034-0.347-0.034c0,0,0,0-0.01,0c-0.285,0-0.575,0.055-0.87,0.085
		c-0.27,0.031-0.549,0.039-0.813,0.096h-0.01l-69.269,14.618c-3.836,0.813-6.586,4.2-6.586,8.125v25.145c0,0,0,0.011,0,0.021v32.084
		c-4.691-1.367-9.994-1.629-15.395-0.477c-14.794,3.138-24.694,15.562-22.108,27.742c2.584,12.168,16.677,19.5,31.471,16.353
		c13.085-2.776,22.317-12.801,22.504-23.499c0.088-0.477,0.14-0.952,0.14-1.439V90.472V73.48v-8.019l52.646-11.115v7.684v16.995
		v22.328c-4.682-1.367-9.989-1.628-15.385-0.489c-14.799,3.151-24.699,15.568-22.115,27.734
		c2.589,12.185,16.678,19.517,31.467,16.368c13.085-2.771,22.318-12.801,22.504-23.506c0.088-0.477,0.141-0.956,0.141-1.442V68.634
		c0,0,0-0.011,0-0.021V44.1c0-0.01,0-0.01,0-0.018c0-0.264-0.053-0.528-0.083-0.79c-0.026-0.301-0.036-0.608-0.099-0.901
		c0,0,0,0,0-0.01C233.844,42.295,233.808,42.228,233.787,42.137z"/>
	<path d="M211.547,71.438c-1.336-3.404-6.068-6.268-12.629-7.959l-29.412,6.209v15.27h42.041V71.438z"/>
	<path d="M15.148,45.498v14.747c0,0-3.394,0-7.578,0C3.387,60.245,0,65.001,0,70.85v138.859c0,14.644,4.21,15.41,9.401,1.719
		l47.98-126.476h84.909V61.83H90.855c0,0,0-6.962,0-15.542c0-8.583-11.871-15.544-26.512-15.544H41.661
		C27.015,30.753,15.148,37.353,15.148,45.498z"/>
	<path d="M189.063,94.555h-13.266v11.301C179.143,101.3,183.679,97.403,189.063,94.555z"/>
	<path d="M255.302,119.467c4.091-11.231-0.486-20.591-10.242-23.68v24.236c0,0.8-0.057,1.605-0.165,2.403
		c-0.679,15.462-13.536,29.226-30.872,32.912c-3.004,0.632-6.054,0.963-9.072,0.963c-12.614,0-23.644-5.51-29.971-14.25
		c-2.9,13.344-14.784,24.622-30.23,27.899c-2.992,0.637-6.048,0.963-9.062,0.963c-17.414,0-31.799-10.485-34.986-25.491
		c-1.893-8.912,0.515-18.419,6.618-26.067c5.706-7.159,14.11-12.223,23.659-14.253c2.316-0.489,4.657-0.785,6.998-0.901V94.55
		H62.309l-38.75,106.589c-5,13.77,2.809,24.918,17.456,24.918h149.019c14.639,0,30.566-11.159,35.573-24.918L255.302,119.467z"/>
</g>
<g>
</g>
<g>
</g>
<g>
</g>
<g>
</g>
<g>
</g>
<g>
</g>
<g>
</g>
<g>
</g>
<g>
</g>
<g>
</g>
<g>
</g>
<g>
</g>
<g>
</g>
<g>
</g>
<g>
</g>
</svg>
