<?xml version="1.0" encoding="iso-8859-1"?>
<!-- Generator: Adobe Illustrator 16.0.0, SVG Export Plug-In . SVG Version: 6.00 Build 0)  -->
<!DOCTYPE svg PUBLIC "-//W3C//DTD SVG 1.1//EN" "http://www.w3.org/Graphics/SVG/1.1/DTD/svg11.dtd">
<svg version="1.1" id="Capa_1" xmlns="http://www.w3.org/2000/svg" xmlns:xlink="http://www.w3.org/1999/xlink" x="0px" y="0px"
	 width="476.91px" height="476.909px" viewBox="0 0 476.91 476.909" style="enable-background:new 0 0 476.91 476.909;"
	 xml:space="preserve">
<g>
	<g>
		<path d="M62.802,142.287h121.682c4.45,0,10.95-3.805,13.32-7.999l24.816-41.066H62.802C28.12,93.222,0,121.342,0,156.026v20.779
			C13.266,156.086,36.425,142.287,62.802,142.287z"/>
		<path d="M414.105,67.708H266.913c-8.681,0-19.151,6.125-23.399,13.685l-7.147,11.828l-28.489,47.157
			c-4.246,7.558-14.719,13.684-23.393,13.684H62.802C28.12,154.062,0,182.183,0,216.865v115.794v13.737
			c0,34.685,28.12,62.805,62.802,62.805h351.303c34.685,0,62.805-28.12,62.805-62.805v-13.737V156.026v-25.515
			C476.91,95.829,448.79,67.708,414.105,67.708z M208.372,335.332h163.952c4.34,0,7.851,3.515,7.851,7.851
			c0,4.349-3.511,7.851-7.851,7.851H208.372c-4.332,0-7.851-3.502-7.851-7.851C200.521,338.847,204.04,335.332,208.372,335.332z
			 M200.521,301.762c0-4.344,3.519-7.851,7.851-7.851h163.952c4.34,0,7.851,3.507,7.851,7.851c0,4.341-3.511,7.851-7.851,7.851
			H208.372C204.04,309.612,200.521,306.103,200.521,301.762z M380.19,216.52c0,4.332-3.526,7.851-7.85,7.851H250.659
			c-4.332,0-7.847-3.519-7.847-7.851c0-4.334,3.515-7.851,7.847-7.851H372.34C376.664,208.669,380.19,212.186,380.19,216.52z
			 M372.34,252.491c4.323,0,7.85,3.502,7.85,7.85c0,4.341-3.526,7.852-7.85,7.852H208.372c-4.332,0-7.851-3.511-7.851-7.852
			c0-4.348,3.519-7.85,7.851-7.85H372.34z M128.618,305.337c10.395-6.052,21.512-8.007,30.413-6.288v-67.912V208.82v-6.899h6.904
			h10.047h35.53c3.817,0,6.899,3.092,6.899,6.899v15.409c0,3.815-3.09,6.901-6.899,6.901h-35.53v87.636h-0.088
			c-0.571,10.552-8.752,22.466-21.919,30.132c-17.829,10.379-37.956,9.028-44.955-2.989
			C102.017,333.878,110.791,315.716,128.618,305.337z"/>
	</g>
</g>
<g>
</g>
<g>
</g>
<g>
</g>
<g>
</g>
<g>
</g>
<g>
</g>
<g>
</g>
<g>
</g>
<g>
</g>
<g>
</g>
<g>
</g>
<g>
</g>
<g>
</g>
<g>
</g>
<g>
</g>
</svg>
